# xmcd
# 
# Track frame offsets:
#     150
#     25870
#     45487
#     69150
#     86850
#     105317
#     129647
#     155550
#     181785
#     199322
#     221467
# 
# Disc length: 3365
# 
# Revision: 3
# Processed by: cddbd v1.5.2PL0 Copyright (c) Steve Scherf et al.
# Submitted via: BonkEnc v1.0.6
# 
DISCID=8e0d230b
DTITLE=Jimmy Rip - Way Past Blue
DYEAR=1996
DGENRE=Blues
TTITLE0=It's Goin' Round
TTITLE1=Close to You
TTITLE2=Cold Comfort
TTITLE3=Snake Eyes
TTITLE4=Detroit Jewel
TTITLE5=Walk
TTITLE6=Mojo
TTITLE7=Insanity, Please
TTITLE8=Layin' in the Cut
TTITLE9=State of Mind
TTITLE10=Way Past Blue
EXTD=YEAR: 1996
EXTT0=
EXTT1=
EXTT2=
EXTT3=
EXTT4=
EXTT5=
EXTT6=
EXTT7=
EXTT8=
EXTT9=
EXTT10=
PLAYORDER=
